Plot.

Jack Sadelstein (Adam Sandler) is a successful advertising executive in Los Angeles with a beautiful wife (Katie Holmes) and kids, who dreads one event each year: the Thanksgiving visit of his identical twin sister Jill (also Adam Sandler). Jill's neediness and passive-aggressiveness is maddening to Jack, turning his normally tranquil life upside down.


General.

Complete name                    : Jack.And.Jill.[2011]ENG[BRrip]Xvid-{RedDragon}.avi
Format                           : MPEG-4
Format profile                   : Base Media / Version 2
Codec ID                         : mp42
File size                        : 796 MiB
Duration                         : 1h 30mn
Overall bit rate                 : 1 227 Kbps
IMDB Link                          : http://www.imdb.com/title/tt0810913/
IMDB Rating                      : 3.0/10


Video.

ID                               : 1
Format                           : AVC
Format/Info                      : Advanced Video Codec
Format profile                   : Main@L3.0
Format settings, CABAC           : Yes
Format settings, ReFrames        : 4 frames
Format settings, GOP             : M=3, N=32
Codec ID                         : avc1
Codec ID/Info                    : Advanced Video Coding
Duration                         : 1h 30mn
Bit rate mode                    : Variable
Bit rate                         : 1 092 Kbps
Width                            : 640 pixels
Height                           : 346 pixels
Display aspect ratio             : 1.850
Frame rate mode                  : Variable
Frame rate                       : 23.976 fps
Minimum frame rate               : 23.974 fps
Maximum frame rate               : 238.727 fps
Color space                      : YUV
Chroma subsampling               : 4:2:0
Bit depth                        : 8 bits
Scan type                        : Progressive
Bits/(Pixel*Frame)               : 0.206
Stream size                      : 689 MiB (87%)
Writing library                  : x264 core 112


Audio.

ID                               : 2
Format                           : AAC
Format/Info                      : Advanced Audio Codec
Format version                   : Version 4
Format profile                   : LC
Format settings, SBR             : No
Codec ID                         : 40
Duration                         : 1h 30mn
Bit rate mode                    : Variable
Bit rate                         : 160 Kbps
Maximum bit rate                 : 242 Kbps
Channel(s)                       : 2 channels
Channel positions                : Front: L R
Sampling rate                    : 44.1 KHz
Stream size                      : 104 MiB (13%)
Encoded date                     : UTC 2012-02-19 14:37:03
Tagged date                      : UTC 2012-02-19 15:11:23
